<svg xmlns="http://www.w3.org/2000/svg" width="390" height="505" viewBox="0 0 390 505" role="img" aria-labelledby="title desc"><title id="title">D13-1 · TI LM7805CT/NOPB</title><desc id="desc">Nhìn mặt chữ TO-220 NDE của TI, chân xuống: 1 IN, 2 GND, 3 OUT; tab nối GND.</desc><rect width="390" height="505" rx="18" fill="#f5f9fc"/><text x="20" y="35" font-size="19" font-weight="700" fill="#19344a" font-family="Arial,sans-serif">D13-1 · TI LM7805CT/NOPB</text><rect x="73" y="75" width="245" height="110" rx="7" fill="#e2edf6" stroke="#203f56" stroke-width="2"/><text x="195.5" y="135.0" fill="#19344a" font-size="14" font-weight="bold" text-anchor="middle" font-family="Arial,sans-serif">LM7805CT / TO-220</text><text x="195" y="106" fill="#516779" font-size="13" font-weight="normal" text-anchor="middle" font-family="Arial,sans-serif">mặt chữ · tab = GND</text><path d="M118 185 L118 218" fill="none" stroke="#203f56" stroke-width="3" stroke-linecap="round"/><text x="118" y="240" fill="#19344a" font-size="14" font-weight="bold" text-anchor="middle" font-family="Arial,sans-serif">1 IN</text><path d="M195 185 L195 218" fill="none" stroke="#203f56" stroke-width="3" stroke-linecap="round"/><text x="195" y="240" fill="#19344a" font-size="14" font-weight="bold" text-anchor="middle" font-family="Arial,sans-serif">2 GND</text><path d="M272 185 L272 218" fill="none" stroke="#203f56" stroke-width="3" stroke-linecap="round"/><text x="272" y="240" fill="#19344a" font-size="14" font-weight="bold" text-anchor="middle" font-family="Arial,sans-serif">3 OUT</text><text x="20" y="285" fill="#516779" font-size="14" font-weight="normal" text-anchor="start" font-family="Arial,sans-serif">Sơ đồ nút: tụ mắc song song rail</text><text x="18" y="341" fill="#c23d3d" font-size="14" font-weight="bold" text-anchor="start" font-family="Arial,sans-serif">Vin</text><path d="M52 336 L98 336" fill="none" stroke="#203f56" stroke-width="3" stroke-linecap="round"/><rect x="98" y="313" width="192" height="46" rx="7" fill="#e7f0f8" stroke="#203f56" stroke-width="2"/><text x="194.0" y="341.0" fill="#19344a" font-size="14" font-weight="bold" text-anchor="middle" font-family="Arial,sans-serif">LM7805</text><path d="M290 336 L340 336" fill="none" stroke="#203f56" stroke-width="3" stroke-linecap="round"/><text x="341" y="341" fill="#c23d3d" font-size="14" font-weight="bold" text-anchor="start" font-family="Arial,sans-serif">5 V</text><path d="M75 336 L75 374" fill="none" stroke="#203f56" stroke-width="3" stroke-linecap="round"/><path d="M75 373 L75 394" fill="none" stroke="#203f56" stroke-width="3" stroke-linecap="round"/><path d="M58 394 L92 394" fill="none" stroke="#203f56" stroke-width="3" stroke-linecap="round"/><path d="M58 408 L92 408" fill="none" stroke="#203f56" stroke-width="3" stroke-linecap="round"/><path d="M75 408 L75 429" fill="none" stroke="#203f56" stroke-width="3" stroke-linecap="round"/><text x="100" y="406" fill="#19344a" font-size="14" font-weight="normal" text-anchor="start" font-family="Arial,sans-serif">Cin</text><path d="M75 429 L75 451" fill="none" stroke="#203f56" stroke-width="3" stroke-linecap="round"/><path d="M312 336 L312 374" fill="none" stroke="#203f56" stroke-width="3" stroke-linecap="round"/><path d="M312 373 L312 394" fill="none" stroke="#203f56" stroke-width="3" stroke-linecap="round"/><path d="M295 394 L329 394" fill="none" stroke="#203f56" stroke-width="3" stroke-linecap="round"/><path d="M295 408 L329 408" fill="none" stroke="#203f56" stroke-width="3" stroke-linecap="round"/><path d="M312 408 L312 429" fill="none" stroke="#203f56" stroke-width="3" stroke-linecap="round"/><text x="337" y="406" fill="#19344a" font-size="14" font-weight="normal" text-anchor="start" font-family="Arial,sans-serif">Cout</text><path d="M312 429 L312 451" fill="none" stroke="#203f56" stroke-width="3" stroke-linecap="round"/><path d="M75 451 L312 451" fill="none" stroke="#203f56" stroke-width="3" stroke-linecap="round"/><path d="M195 359 L195 451" fill="none" stroke="#203f56" stroke-width="3" stroke-linecap="round"/><text x="20" y="457" fill="#1766a1" font-size="14" font-weight="bold" text-anchor="start" font-family="Arial,sans-serif">GND</text></svg>
