<svg xmlns="http://www.w3.org/2000/svg" width="560" height="1067" viewBox="0 0 560 1067" role="img" aria-labelledby="title desc">
<title id="title">Chuẩn bị demo mười phút — Bài 49</title>
<desc id="desc">Demo có bằng chứng; Tiến độ: Rà SRS, mạch, mã, test và doc.; Kịch bản: Vấn đề → sản phẩm → chạy thật.; Kết quả: Nêu yêu cầu đạt và chưa đạt.; Dự phòng: Pin, WiFi và chức năng offline.</desc>
<rect width="560" height="1067" rx="24" fill="#102036"/>
<rect x="24" y="22" width="154" height="42" rx="21" fill="#254761"/>
<text x="43" y="52" font-family="Arial,sans-serif" font-size="20" font-weight="700" fill="#e8f4fa">BÀI 49 · TỔNG KẾT</text>
<text x="27" y="112" font-family="Arial,sans-serif" font-size="34" font-weight="700" fill="#f7fbff">Chuẩn bị demo mười phút</text>
<rect x="26" y="139" width="508" height="90" rx="22" fill="#226174" stroke="#76e3dc" stroke-width="3"/>
<text x="49" y="193" font-family="Arial,sans-serif" font-size="30" font-weight="700" fill="#ffffff">Demo có bằng chứng</text>
<path d="M 65 229 V 929" stroke="#76e3dc" stroke-width="4" fill="none"/>
<path d="M 65 340 H 91" stroke="#76e3dc" stroke-width="4"/>
<circle cx="65" cy="340" r="8" fill="#63d8cc"/>
<rect x="91" y="257" width="443" height="166" rx="20" fill="#1c304a" stroke="#426480" stroke-width="2"/>
<rect x="91" y="257" width="8" height="166" rx="4" fill="#63d8cc"/>
<text x="118" y="316" font-family="Arial,sans-serif" font-size="32" font-weight="700" fill="#f7fbff">Tiến độ</text>
<text x="118" y="364" font-family="Arial,sans-serif" font-size="29" font-weight="400" fill="#deedf5">Rà SRS, mạch, mã, test và</text>
<text x="118" y="398" font-family="Arial,sans-serif" font-size="29" font-weight="400" fill="#deedf5">doc.</text>
<path d="M 65 535 H 91" stroke="#76e3dc" stroke-width="4"/>
<circle cx="65" cy="535" r="8" fill="#f8c476"/>
<rect x="91" y="452" width="443" height="166" rx="20" fill="#1c304a" stroke="#426480" stroke-width="2"/>
<rect x="91" y="452" width="8" height="166" rx="4" fill="#f8c476"/>
<text x="118" y="511" font-family="Arial,sans-serif" font-size="32" font-weight="700" fill="#f7fbff">Kịch bản</text>
<text x="118" y="559" font-family="Arial,sans-serif" font-size="29" font-weight="400" fill="#deedf5">Vấn đề → sản phẩm → chạy</text>
<text x="118" y="593" font-family="Arial,sans-serif" font-size="29" font-weight="400" fill="#deedf5">thật.</text>
<path d="M 65 730 H 91" stroke="#76e3dc" stroke-width="4"/>
<circle cx="65" cy="730" r="8" fill="#aebdff"/>
<rect x="91" y="647" width="443" height="166" rx="20" fill="#1c304a" stroke="#426480" stroke-width="2"/>
<rect x="91" y="647" width="8" height="166" rx="4" fill="#aebdff"/>
<text x="118" y="706" font-family="Arial,sans-serif" font-size="32" font-weight="700" fill="#f7fbff">Kết quả</text>
<text x="118" y="754" font-family="Arial,sans-serif" font-size="29" font-weight="400" fill="#deedf5">Nêu yêu cầu đạt và chưa</text>
<text x="118" y="788" font-family="Arial,sans-serif" font-size="29" font-weight="400" fill="#deedf5">đạt.</text>
<path d="M 65 925 H 91" stroke="#76e3dc" stroke-width="4"/>
<circle cx="65" cy="925" r="8" fill="#edadd2"/>
<rect x="91" y="842" width="443" height="166" rx="20" fill="#1c304a" stroke="#426480" stroke-width="2"/>
<rect x="91" y="842" width="8" height="166" rx="4" fill="#edadd2"/>
<text x="118" y="901" font-family="Arial,sans-serif" font-size="32" font-weight="700" fill="#f7fbff">Dự phòng</text>
<text x="118" y="949" font-family="Arial,sans-serif" font-size="29" font-weight="400" fill="#deedf5">Pin, WiFi và chức năng</text>
<text x="118" y="983" font-family="Arial,sans-serif" font-size="29" font-weight="400" fill="#deedf5">offline.</text>
</svg>
